<svg height="460pt" viewBox="-1 0 460 460.005" width="460pt" xmlns="http://www.w3.org/2000/svg" xmlns:xlink="http://www.w3.org/1999/xlink"><linearGradient id="a"><stop offset="0" stop-color="#00efd1"/><stop offset="1" stop-color="#00acea"/></linearGradient><linearGradient id="b" gradientUnits="userSpaceOnUse" x1="174.2035" x2="174.2035" xlink:href="#a" y1="-2" y2="451.766"/><linearGradient id="c" gradientUnits="userSpaceOnUse" x1="124.2035" x2="124.2035" xlink:href="#a" y1="-2" y2="451.766"/><linearGradient id="d" gradientUnits="userSpaceOnUse" x1="229.1605" x2="229.1605" xlink:href="#a" y1="-2" y2="451.766"/><path d="m280.707031 383h-213.003906c-4.417969 0-8 3.582031-8 8s3.582031 8 8 8h213.003906c4.417969 0 8-3.582031 8-8s-3.582031-8-8-8zm0 0" fill="url(#b)"/><path d="m67.703125 279h113.003906c4.417969 0 8-3.582031 8-8s-3.582031-8-8-8h-113.003906c-4.417969 0-8 3.582031-8 8s3.582031 8 8 8zm0 0" fill="url(#c)"/><path d="m413.542969 118.03125c-3.214844-3.121094-8.324219-3.125-11.539063-.007812l-53 52.65625v-81.230469c.082032-2.09375-.679687-4.132813-2.117187-5.660157l-80.835938-81.199218c-1.429687-1.570313-3.425781-2.5039065-5.546875-2.589844h-252.988281c-4.414063 0-7.51171875 4.078125-7.51171875 8.496094v443.007812c0 4.417969 3.09765575 8.5 7.51171875 8.5h333.945313c4.417968 0 7.542968-4.074218 7.542968-8.5v-172.632812l106.917969-106.929688c3.148437-3.09375 3.199219-8.152344.109375-11.304687zm-150.625 168.582031 24.648437 24.648438-37.027344 12.378906zm39.441406 16.8125-31.609375-31.605469 101.511719-101.289062 31.382812 31.382812zm-33.355469-275.617187 53.144532 53.191406h-53.144532zm64 416.191406h-317v-428h237v73.449219c-.097656 2.023437.660156 3.992187 2.085938 5.425781 1.425781 1.4375 3.390625 2.207031 5.414062 2.125h72.5v89.644531l-79.453125 79.5c-.839843.820313-1.46875 1.832031-1.824219 2.949219l-11.277343 33.90625h-172.746094c-4.417969 0-8 3.582031-8 8s3.582031 8 8 8h167.398437l-4.820312 14.601562c-.957031 2.84375-.210938 5.992188 1.929688 8.097657.5625.5625 1.203124 1.300781 1.878906 1.300781h-166.386719c-4.417969 0-8 3.582031-8 8s3.582031 8 8 8h213.003906c4.417969 0 8-3.582031 8-8s-3.582031-8-8-8h-38.695312l62.890625-20.847656c1.105468-.363282 2.101562-1 2.898437-1.84375l25.203125-25.402344zm81.941406-253.414062-31.355468-31.355469 24.289062-24.230469 31.300782 31.300781zm0 0" fill="url(#d)"/></svg>