<svg id="Capa_1" enable-background="new 0 0 512 512" height="512" viewBox="0 0 512 512" width="512" xmlns="http://www.w3.org/2000/svg" xmlns:xlink="http://www.w3.org/1999/xlink"><linearGradient id="SVGID_1_" gradientUnits="userSpaceOnUse" x1="256" x2="256" y1="436" y2="76"><stop offset="0" stop-color="#5558ff"/><stop offset="1" stop-color="#00c0ff"/></linearGradient><linearGradient id="SVGID_2_" gradientUnits="userSpaceOnUse" x1="256" x2="256" y1="481" y2="31"><stop offset="0" stop-color="#addcff"/><stop offset=".5028" stop-color="#eaf6ff"/><stop offset="1" stop-color="#eaf6ff"/></linearGradient><g><g><g><path d="m497 76h-362v60h362c8.291 0 15-6.709 15-15v-30c0-8.291-6.709-15-15-15zm0 300h-362v60h362c8.291 0 15-6.709 15-15v-30c0-8.291-6.709-15-15-15zm-120-150h-362c-8.291 0-15 6.709-15 15v30c0 8.291 6.709 15 15 15h362z" fill="url(#SVGID_1_)"/></g></g><g><g><path d="m135 31h-120c-8.291 0-15 6.709-15 15v120c0 8.291 6.709 15 15 15h120c8.291 0 15-6.709 15-15v-120c0-8.291-6.709-15-15-15zm0 300h-120c-8.291 0-15 6.709-15 15v120c0 8.291 6.709 15 15 15h120c8.291 0 15-6.709 15-15v-120c0-8.291-6.709-15-15-15zm362-150h-120c-8.291 0-15 6.709-15 15v120c0 8.291 6.709 15 15 15h120c8.291 0 15-6.709 15-15v-120c0-8.291-6.709-15-15-15z" fill="url(#SVGID_2_)"/></g></g></g></svg>